<?xml version="1.0" encoding="UTF-8"?>
<svg width="300px" height="300px" viewBox="0 0 300 300" version="1.1" xmlns="http://www.w3.org/2000/svg" xmlns:xlink="http://www.w3.org/1999/xlink">
    <!-- Generator: Sketch 51.2 (57519) - http://www.bohemiancoding.com/sketch -->
    <title>empty-order-list</title>
    <desc>Created with Sketch.</desc>
    <defs>
        <path d="M33.4661938,0 C40.8050661,0 46.3092203,0 49.9786564,0 C65.5974712,0 89.0256934,0 120.263323,0 C123.632433,0 126.363636,2.73398201 126.363636,6.10651974 L126.363636,149.173554 C126.363636,152.546091 123.632433,155.280073 120.263323,155.280073 L6.10031348,155.280073 C2.73120338,155.280073 0,152.546091 0,149.173554 L0,33.6339917 L33.4661938,0 Z" id="path-1"></path>
        <path d="M92.8966599,10.5577227 L97.9224704,1.37030713 C98.6164237,0.101728216 100.20737,-0.364097885 101.475949,0.32985541 C101.915095,0.570082388 102.276174,0.931161034 102.516401,1.37030713 L107.542212,10.5577227 C108.455485,12.2272297 108.93415,14.0996376 108.93415,16.0026149 L108.934118,95.9685135 C108.934118,100.7815 105.032422,104.683196 100.219436,104.683196 C100.219436,104.683196 100.219436,104.683196 100.219436,104.683196 C100.219436,104.683196 100.219436,104.683196 100.219436,104.683196 L100.219436,104.683196 C95.4064497,104.683196 91.5047536,100.7815 91.5047536,95.9685135 L91.5047217,16.0026149 C91.5047217,14.0996376 91.9833861,12.2272297 92.8966599,10.5577227 Z" id="path-3"></path>
        <filter x="-17.2%" y="-2.9%" width="134.4%" height="105.7%" filterUnits="objectBoundingBox" id="filter-4">
            <feOffset dx="6" dy="3" in="SourceAlpha" result="shadowOffsetInner1"></feOffset>
            <feComposite in="shadowOffsetInner1" in2="SourceAlpha" operator="arithmetic" k2="-1" k3="1" result="shadowInnerInner1"></feComposite>
            <feColorMatrix values="0 0 0 0 0.917647059   0 0 0 0 0.925490196   0 0 0 0 0.945098039  0 0 0 1 0" type="matrix" in="shadowInnerInner1"></feColorMatrix>
        </filter>
        <filter x="-17.2%" y="-2.9%" width="134.4%" height="105.7%" filterUnits="objectBoundingBox" id="filter-5">
            <feOffset dx="6" dy="3" in="SourceAlpha" result="shadowOffsetInner1"></feOffset>
            <feComposite in="shadowOffsetInner1" in2="SourceAlpha" operator="arithmetic" k2="-1" k3="1" result="shadowInnerInner1"></feComposite>
            <feColorMatrix values="0 0 0 0 0.917647059   0 0 0 0 0.925490196   0 0 0 0 0.945098039  0 0 0 1 0" type="matrix" in="shadowInnerInner1"></feColorMatrix>
        </filter>
    </defs>
    <g id="empty-order-list" stroke="none" stroke-width="1" fill="none" fill-rule="evenodd">
        <g id="Group-4">
            <polygon id="Rectangle-22-Copy-3" fill-rule="nonzero" points="0 0 299.093656 0 299.093656 300 0 300"></polygon>
            <g id="Group-3" transform="translate(87.272727, 105.454545)">
                <g id="Group-2">
                    <g id="Group" transform="translate(0.000000, 17.447199)">
                        <mask id="mask-2" fill="white">
                            <use xlink:href="#path-1"></use>
                        </mask>
                        <path stroke="#C4C9D5" stroke-width="2.61818182" d="M34.0103557,1.30909091 L1.30909091,34.1743183 L1.30909091,149.173554 C1.30909091,151.823398 3.45449248,153.970983 6.10031348,153.970983 L120.263323,153.970983 C122.909144,153.970983 125.054545,151.823398 125.054545,149.173554 L125.054545,6.10651974 C125.054545,3.45667514 122.909144,1.30909091 120.263323,1.30909091 C77.3115823,1.30909091 77.3115823,1.30909091 49.9786564,1.30909091 C43.6747021,1.30909091 43.5592953,1.30909091 34.0103557,1.30909091 Z"></path>
                        <path d="M-26.1356901,115.870531 C-8.08098632,102.605661 9.50223681,101.858249 26.6139792,113.628293 C52.2815929,131.283359 75.716056,137.628415 90.6587603,133.285357 C105.601465,128.942299 122.321599,102.892054 150.572553,121.929343 C178.823508,140.966632 174.909128,186.896307 174.909128,190.058612 C174.909128,193.220917 186.595721,208.836501 152.902723,219.505872 C119.209725,230.175243 128.748273,255.122694 66.1911246,231.991524 C3.6339758,208.860354 -28.746706,202.397734 -32.4879139,190.058612 C-34.9820525,181.83253 -32.8646446,157.103169 -26.1356901,115.870531 Z" id="Path-2" fill="#EAECF1" fill-rule="nonzero" mask="url(#mask-2)"></path>
                        <path d="M34.0330291,1.36363636 L1.36363636,34.1968319 L1.36363636,149.173554 C1.36363636,151.793286 3.48462952,153.916437 6.10031348,153.916437 L120.263323,153.916437 C122.879007,153.916437 125,151.793286 125,149.173554 L125,6.10651974 C125,3.48678735 122.879007,1.36363636 120.263323,1.36363636 C77.3115823,1.36363636 77.3115823,1.36363636 49.9786564,1.36363636 C43.6796955,1.36363636 43.5594821,1.36363636 34.0330291,1.36363636 Z" id="Rectangle-16-Copy-2" stroke="#C4C9D5" stroke-width="2.72727273" mask="url(#mask-2)"></path>
                    </g>
                    <path d="M33.0022525,21.9558503 L3.79033099,51.6459886 L28.2656127,51.6459886 C30.8812898,51.6459886 33.0022525,49.522963 33.0022525,46.9034158 L33.0022525,21.9558503 Z" id="Rectangle-16-Copy" stroke="#C4C9D5" stroke-width="2.72727273"></path>
                    <g id="Rectangle-20" transform="translate(100.219436, 52.341598) rotate(-180.000000) translate(-100.219436, -52.341598) ">
                        <use fill="#F4F6F8" fill-rule="evenodd" xlink:href="#path-3"></use>
                        <use fill="black" fill-opacity="1" filter="url(#filter-4)" xlink:href="#path-3"></use>
                        <use fill="black" fill-opacity="1" filter="url(#filter-5)" xlink:href="#path-3"></use>
                    </g>
                </g>
            </g>
            <path d="M55.9090909,164.090909 L59.5454545,164.090909 C60.2985701,164.090909 60.9090909,164.70143 60.9090909,165.454545 C60.9090909,166.207661 60.2985701,166.818182 59.5454545,166.818182 L55.9090909,166.818182 L55.9090909,170.454545 C55.9090909,171.207661 55.2985701,171.818182 54.5454545,171.818182 C53.792339,171.818182 53.1818182,171.207661 53.1818182,170.454545 L53.1818182,166.818182 L49.5454545,166.818182 C48.792339,166.818182 48.1818182,166.207661 48.1818182,165.454545 C48.1818182,164.70143 48.792339,164.090909 49.5454545,164.090909 L53.1818182,164.090909 L53.1818182,160.454545 C53.1818182,159.70143 53.792339,159.090909 54.5454545,159.090909 C55.2985701,159.090909 55.9090909,159.70143 55.9090909,160.454545 L55.9090909,164.090909 Z" id="Combined-Shape" fill="#C4C9D5" fill-rule="nonzero"></path>
            <path d="M237.337662,209.025974 L239.935065,209.025974 C240.473005,209.025974 240.909091,209.46206 240.909091,210 C240.909091,210.53794 240.473005,210.974026 239.935065,210.974026 L237.337662,210.974026 L237.337662,213.571429 C237.337662,214.109368 236.901576,214.545455 236.363636,214.545455 C235.825697,214.545455 235.38961,214.109368 235.38961,213.571429 L235.38961,210.974026 L232.792208,210.974026 C232.254268,210.974026 231.818182,210.53794 231.818182,210 C231.818182,209.46206 232.254268,209.025974 232.792208,209.025974 L235.38961,209.025974 L235.38961,206.428571 C235.38961,205.890632 235.825697,205.454545 236.363636,205.454545 C236.901576,205.454545 237.337662,205.890632 237.337662,206.428571 L237.337662,209.025974 Z" id="Combined-Shape-Copy-2" fill="#C4C9D5" fill-rule="nonzero" opacity="0.851897321"></path>
            <path d="M220.25974,87.012987 L223.376623,87.012987 C224.022151,87.012987 224.545455,87.5362906 224.545455,88.1818182 C224.545455,88.8273458 224.022151,89.3506494 223.376623,89.3506494 L220.25974,89.3506494 L220.25974,92.4675325 C220.25974,93.1130601 219.736437,93.6363636 219.090909,93.6363636 C218.445381,93.6363636 217.922078,93.1130601 217.922078,92.4675325 L217.922078,89.3506494 L214.805195,89.3506494 C214.159667,89.3506494 213.636364,88.8273458 213.636364,88.1818182 C213.636364,87.5362906 214.159667,87.012987 214.805195,87.012987 L217.922078,87.012987 L217.922078,83.8961039 C217.922078,83.2505763 218.445381,82.7272727 219.090909,82.7272727 C219.736437,82.7272727 220.25974,83.2505763 220.25974,83.8961039 L220.25974,87.012987 Z" id="Combined-Shape-Copy" fill="#C4C9D5" fill-rule="nonzero" opacity="0.521819196"></path>
        </g>
    </g>
</svg>