<svg xmlns="http://www.w3.org/2000/svg" xmlns:xlink="http://www.w3.org/1999/xlink" width="216" height="192">
  <defs>
    <path id="a" d="M143.474 81.565c-.362 1.626-1.132 2.89-2.31 3.794-1.177.903-2.49 1.354-3.94 1.354H57.607l1.63 8.672h73.096c1.993 0 3.623.813 4.891 2.439 1.268 1.626 1.721 3.432 1.359 5.42l-1.63 6.774c2.717 1.264 4.845 3.116 6.385 5.555 1.54 2.439 2.31 5.103 2.31 7.994 0 4.155-1.495 7.723-4.484 10.703-2.989 2.981-6.567 4.472-10.733 4.472-4.167 0-7.745-1.49-10.734-4.472-2.989-2.98-4.483-6.593-4.483-10.839 0-4.245 1.54-7.813 4.62-10.703H62.77c3.08 2.89 4.62 6.458 4.62 10.703 0 4.246-1.495 7.859-4.484 10.84-2.99 2.98-6.567 4.47-10.734 4.47-4.166 0-7.744-1.49-10.733-4.47-2.99-2.981-4.484-6.55-4.484-10.704 0-2.71.68-5.24 2.038-7.588 1.359-2.348 3.216-4.245 5.57-5.69l-19.02-92.946H6.522c-1.812 0-3.352-.633-4.62-1.897C.634 14.18 0 12.646 0 10.839V6.504C0 4.697.634 3.16 1.902 1.897 3.17.632 4.71 0 6.522 0H34.51c1.449 0 2.762.497 3.94 1.49 1.177.994 1.947 2.213 2.31 3.659l2.445 12.194h106.79c2.174 0 3.895.813 5.163 2.439 1.268 1.625 1.63 3.432 1.087 5.42l-12.771 56.363z"/>
  </defs>
  <g fill="none" fill-rule="evenodd">
    <g transform="translate(1 -3)">
      <g transform="translate(19.837 56.258)">
        <mask id="b" fill="#fff">
          <use xlink:href="#a"/>
        </mask>
        <path fill="#D0D4DF" fill-rule="nonzero" d="M144.918 69.37c31.345 0 56.755-25.388 56.755-56.707s-25.41-56.708-56.755-56.708c-31.345 0-81.796 25.389-81.796 56.708 0 19.85 32.967 23.001 55.79 33.133C132.1 51.649 133.44 69.37 144.919 69.37z" mask="url(#b)" opacity=".292"/>
        <path stroke="#C4C9D5" stroke-width="3" d="M30.529 34.224l2.707 13.23.953 4.659.517 2.522 2.48 12.12 1.626 7.948 1.82 8.894 5.401 26.391.211 1.03-.896.55c-2.143 1.315-3.823 3.03-5.056 5.162a13.399 13.399 0 0 0-1.837 6.837c0 3.754 1.335 6.94 4.043 9.641 2.709 2.702 5.906 4.034 9.674 4.034s6.966-1.332 9.675-4.034c2.706-2.699 4.042-5.93 4.042-9.777 0-3.831-1.369-7.003-4.146-9.61l-2.763-2.593h64.643l-2.763 2.593c-2.777 2.607-4.146 5.779-4.146 9.61 0 3.848 1.336 7.078 4.043 9.777 2.709 2.702 5.906 4.034 9.674 4.034s6.965-1.332 9.674-4.034c2.708-2.7 4.043-5.887 4.043-9.641 0-2.607-.69-4.994-2.078-7.193-1.385-2.193-3.292-3.852-5.75-4.996l-1.113-.518.287-1.193 1.613-6.693c.285-1.564-.06-2.937-1.066-4.228-.986-1.265-2.182-1.861-3.708-1.861h-74.34L55.8 85.213h81.425c1.117 0 2.11-.341 3.027-1.045.889-.681 1.47-1.637 1.76-2.935l12.787-56.428c.419-1.53.155-2.848-.822-4.101-.98-1.256-2.262-1.861-3.98-1.861H41.975l-.242-1.205-2.43-12.125c-.284-1.137-.882-2.084-1.821-2.876-.912-.77-1.884-1.137-2.973-1.137H6.522c-1.416 0-2.575.476-3.56 1.459C1.975 3.941 1.5 5.095 1.5 6.504v4.335c0 1.41.476 2.562 1.461 3.545.986.983 2.145 1.459 3.56 1.459h20.246l.245 1.199 1.585 7.745 1.074 5.249.858 4.188z" mask="url(#b)"/>
      </g>
      <ellipse cx="5.51" cy="142.146" stroke="#D0D4DF" stroke-width="1.76" rx="5.51" ry="5.506"/>
      <g fill-rule="nonzero" transform="rotate(23 70.931 349.606)">
        <ellipse cx="6.857" cy="12.613" stroke="#D0D4DF" stroke-width="1.76" rx="6.857" ry="7.207"/>
        <ellipse cx="9.857" cy="5.856" fill="#9DA6BC" opacity=".229" rx="5.571" ry="5.856"/>
      </g>
      <path stroke="#D0D4DF" stroke-linecap="round" stroke-width="3.3" d="M197.729 49.195l9.283.458a2.2 2.2 0 0 1 1.894 1.286l3.803 8.36"/>
    </g>
  </g>
</svg>
