<svg xmlns="http://www.w3.org/2000/svg" width="275" height="46">
  <g fill="none" fill-rule="evenodd">
    <g>
      <g>
        <path fill="#048DF5" d="M28.644 12.065c.354 0 .588.27.525.6L22.892 45.4c-.064.33-.4.6-.755.6h-7.145c-.352 0-.589-.27-.525-.6l6.277-32.735c.063-.33.402-.6.755-.6h7.145zm39.173-10.73c4.258 0 5.963 2.564 5.173 6.689l-6.241 32.392C65.958 44.54 64.548 46 60.289 46h-7.784c-.42 0-.58-.202-.476-.75l.91-4.806a.803.803 0 0 1 .705-.449h3.73c.512 0 1.091-.265 1.25-1.023L64.305 9.34c.186-1.027-.395-2-1.596-2H36.426c-.292 0-.512-.184-.534-.45l.949-4.805c.074-.419.575-.75.994-.75h29.982zm-10.19 35.247c.228.421-.098.92-.603.92h-8.108a.683.683 0 0 1-.603-.347l-5.29-9.78-6.735 9.475c-.293.413-.772.651-1.308.651h-7.704c-.562 0-.95-.604-.654-1.02l17.186-24.232a.445.445 0 0 1 .369-.184h8.65c.427 0 .72.499.486.83l-4.825 6.788 9.14 16.9zM109.88 1.018c.354 0 .588.27.525.6l-5.6 29.312c-.064.331-.4.6-.754.6h-6.695c-.352 0-.588-.269-.525-.6l4.496-23.533H90.315l-5.2 27.06c-.065.332-.402.6-.755.6h-6.695c-.352 0-.588-.268-.525-.6l6.312-32.84c.064-.33.403-.599.756-.599h25.672zm21.745.317c4.259 0 5.964 2.564 5.173 6.689l-6.24 32.392c-.792 4.124-2.202 5.584-6.46 5.584h-15.104c-.42 0-.58-.202-.476-.75l.91-4.806a.803.803 0 0 1 .705-.449h11.05c.512 0 1.09-.265 1.25-1.023l5.68-29.632c.187-1.027-.395-2-1.596-2h-6.851l-.533 2.694a.535.535 0 0 1-.526.435h-7.334a.535.535 0 0 1-.526-.636l1.827-9.234c.064-.33.403-.599.756-.599h7.145c.354 0 .587.269.524.599l-.15.758a.92.92 0 0 1 .186-.022h10.59zm-18.564 32.81H105.727a.536.536 0 0 1-.526-.636l7.537-17.104c.063-.33.402-.6.755-.6h7.144c.354 0 .589.27.525.6l-4.39 10.029h4.198c.15 0 .286.068.368.184l1.455 6.507c.295.416-.093 1.02-.655 1.02h-9.077zm-9.728 1.519c.354 0 .588.269.525.599l-1.799 9.302a.535.535 0 0 1-.526.435H94.65a.535.535 0 0 1-.526-.636l1.76-9.101c.064-.33.403-.599.755-.599h6.694zm-5.71-22.977c.639 0 1.12.584.997 1.212l-5.177 26.517c-.79 4.124-2.2 5.584-6.459 5.584h-13.3c-.42 0-.58-.202-.476-.75l.91-4.806a.803.803 0 0 1 .705-.449h9.246c.512 0 1.09-.265 1.25-1.023l4.946-25.462c.092-.478.51-.823.997-.823h6.36zM273.546 6.92c.357 0 .593.272.529.606l-.987 4.85c-.064.335-.405.606-.762.606h-11.032l-5.054 6.098h15.19c.356 0 .592.272.529.605l-.988 4.851c-.064.335-.404.606-.761.606h-9.066l6.14 11.35c.23.426-.1.928-.608.928h-8.295a.69.69 0 0 1-.609-.35l-6.451-11.928h-.103l-9.62 11.609c-.35.424-.873.67-1.423.67h-7.721c-.567 0-.887-.61-.54-1.03l9.297-11.249h-8.852c-.356 0-.594-.271-.53-.606l.987-4.85c.064-.334.407-.606.763-.606h12.642l5.04-6.098h-16.386c-.356 0-.594-.271-.53-.606l.987-4.85c.064-.334.406-.605.762-.605h5.544L238.404.927c-.229-.425.101-.927.61-.927h7.836c.258 0 .494.136.61.351l3.544 6.57h5.268l5.515-6.673a.699.699 0 0 1 .54-.248h8.33c.568 0 .887.61.54 1.03l-4.88 5.89h7.229zm-48.783.052a.54.54 0 0 1-.53-.643l.922-4.814c.064-.334.407-.605.763-.605h7.213c.357 0 .593.271.53.605l-.963 5.018a.54.54 0 0 1-.53.439h-7.405zm43.554 32.966c.294 0 .516.186.54.453l-.96 4.852c-.074.423-.58.756-1.003.756h-44.049c-4.299 0-6.02-2.588-5.222-6.752l5.177-26.9c.064-.333.406-.605.762-.605h7.213c.357 0 .594.272.53.605l-4.915 25.571c-.188 1.037.4 2.02 1.612 2.02h40.315zm-97.07-28.196c.358 0 .594.272.53.605l-6.336 33.047c-.065.334-.405.606-.762.606h-7.213c-.356 0-.594-.272-.53-.606l6.336-33.047c.064-.333.407-.605.762-.605h7.214zM210.794.91c4.3 0 6.02 2.588 5.222 6.752l-6.3 32.7c-.798 4.164-2.222 5.638-6.52 5.638h-7.86c-.423 0-.585-.204-.48-.757l.918-4.852a.81.81 0 0 1 .713-.453h3.766c.516 0 1.1-.267 1.261-1.033l5.736-29.914c.187-1.037-.4-2.02-1.612-2.02h-26.534c-.294 0-.516-.185-.539-.453l.958-4.851c.075-.423.581-.757 1.004-.757h30.267zm-10.286 35.582c.23.426-.1.929-.609.929h-8.185a.69.69 0 0 1-.61-.35l-5.34-9.874-6.798 9.566c-.296.416-.78.657-1.321.657h-7.777c-.568 0-.96-.61-.661-1.03l17.35-24.462a.45.45 0 0 1 .373-.186h8.73c.433 0 .729.504.493.837l-4.87 6.853 9.225 17.06z"/>
        <path fill="#FFC900" d="M29.78 7.34a.535.535 0 0 0 .526-.435l.953-4.97c.063-.331-.17-.6-.525-.6H2.221c-.353 0-.692.269-.755.6L.55 6.702c-.063.33.19.637.526.637H29.78zM172.395 6.972a.54.54 0 0 0 .53-.44l.962-5.017c.064-.334-.172-.605-.53-.605H145.48c-.356 0-.697.271-.762.605l-.923 4.814a.54.54 0 0 0 .53.643h28.07z"/>
      </g>
    </g>
  </g>
</svg>
