<svg xmlns="http://www.w3.org/2000/svg" width="61" height="80">
  <g fill="none" fill-rule="evenodd">
    <g fill="#D0D4DF">
      <path d="M27.475 78.437c-2.708-3.958-6.198-8.958-10.469-15-5.208-7.5-8.646-12.552-10.312-15.156-2.396-3.75-4.01-6.9-4.844-9.453C1.017 36.276.6 33.333.6 30c0-5.417 1.354-10.417 4.062-15C7.371 10.417 11.017 6.771 15.6 4.063 20.183 1.354 25.183 0 30.6 0s10.417 1.354 15 4.063C50.183 6.77 53.829 10.417 56.537 15c2.709 4.583 4.063 9.583 4.063 15 0 3.333-.417 6.276-1.25 8.828-.833 2.552-2.448 5.703-4.844 9.453-1.667 2.604-5.104 7.657-10.312 15.157l-10.47 15C32.997 79.478 31.955 80 30.6 80s-2.396-.52-3.125-1.563zM30.6 42.5c3.437 0 6.38-1.224 8.828-3.672C41.876 36.38 43.1 33.438 43.1 30c0-3.437-1.224-6.38-3.672-8.828-2.448-2.448-5.39-3.672-8.828-3.672-3.438 0-6.38 1.224-8.828 3.672C19.324 23.62 18.1 26.562 18.1 30c0 3.438 1.224 6.38 3.672 8.828 2.448 2.448 5.39 3.672 8.828 3.672z"/>
    </g>
  </g>
</svg>
