<svg xmlns="http://www.w3.org/2000/svg" xmlns:xlink="http://www.w3.org/1999/xlink" width="300" height="300">
  <defs>
    <path id="a" d="M58.636 171.136c-5.909-8.636-13.522-19.545-22.84-32.727-11.364-16.364-18.864-27.386-22.5-33.068-5.228-8.182-8.75-15.057-10.569-20.625C.91 79.148 0 72.727 0 65.455c0-11.819 2.955-22.728 8.864-32.728 5.909-10 13.863-17.954 23.863-23.863C42.727 2.954 53.637 0 65.455 0c11.818 0 22.727 2.955 32.727 8.864 10 5.909 17.954 13.863 23.863 23.863 5.91 10 8.864 20.91 8.864 32.728 0 7.272-.909 13.693-2.727 19.26-1.818 5.57-5.341 12.444-10.568 20.626-3.637 5.682-11.137 16.704-22.5 33.068l-22.841 32.727c-1.591 2.273-3.864 3.41-6.818 3.41-2.955 0-5.228-1.137-6.819-3.41zm6.819-78.409c7.5 0 13.92-2.67 19.26-8.011 5.342-5.341 8.012-11.761 8.012-19.261s-2.67-13.92-8.011-19.262c-5.341-5.34-11.761-8.011-19.261-8.011s-13.92 2.67-19.262 8.011c-5.34 5.341-8.011 11.762-8.011 19.262s2.67 13.92 8.011 19.26c5.341 5.342 11.762 8.012 19.262 8.012z"/>
  </defs>
  <g fill="none" fill-rule="evenodd">
    <g>
      <path d="M0 0h299.094v300H0z"/>
      <g transform="translate(51.818 80)">
        <g transform="translate(32.727 21.818)">
          <mask id="b" fill="#fff">
            <use xlink:href="#a"/>
          </mask>
          <path stroke="#C4C9D5" stroke-width="2.727" d="M59.758 170.36c1.33 1.897 3.182 2.822 5.697 2.822 2.517 0 4.37-.926 5.7-2.826l22.839-32.725c11.354-16.35 18.847-27.363 22.47-33.024 5.171-8.093 8.644-14.872 10.422-20.314 1.77-5.424 2.66-11.703 2.66-18.838 0-11.576-2.89-22.245-8.675-32.034-5.792-9.802-13.58-17.591-23.383-23.383C87.7 4.253 77.03 1.364 65.455 1.364c-11.576 0-22.245 2.89-32.034 8.674C23.619 15.83 15.83 23.619 10.038 33.42 4.253 43.21 1.364 53.879 1.364 65.455c0 7.135.889 13.414 2.66 18.838 1.777 5.442 5.25 12.22 10.42 20.313 3.624 5.662 11.118 16.676 22.465 33.016 9.32 13.184 16.936 24.097 22.849 32.738zm0 0l.004.006-.009-.012.005.006zm5.697-76.27c-7.863 0-14.63-2.814-20.226-8.41-5.596-5.596-8.41-12.363-8.41-20.225 0-7.863 2.814-14.63 8.41-20.226 5.596-5.596 12.363-8.41 20.226-8.41 7.862 0 14.629 2.814 20.225 8.41 5.596 5.596 8.41 12.363 8.41 20.226 0 7.862-2.814 14.629-8.41 20.225-5.596 5.596-12.363 8.41-20.225 8.41z"/>
          <path fill="#D0D4DF" fill-rule="nonzero" d="M-59.015 78.277c46.634-3.73 75.56 1.153 86.779 14.65 16.828 20.246 36.987 50.4 75.536 39.665 38.548-10.734 53.276 139.257 44.404 139.257s-36.154 28.41-90.86 0c-54.704-28.41-78.44-11.28-100.548-57.694-22.107-46.415-15.31-96.537-15.31-104.195V78.277z" mask="url(#b)" opacity=".292"/>
        </g>
        <ellipse cx="5.009" cy="130.254" stroke="#D0D4DF" stroke-width="1.6" rx="5.009" ry="5.005"/>
        <g fill-rule="nonzero" transform="rotate(23 75.338 370.3)">
          <ellipse cx="6.234" cy="11.466" stroke="#D0D4DF" stroke-width="1.6" rx="6.234" ry="6.552"/>
          <ellipse cx="8.961" cy="5.324" fill="#9DA6BC" opacity=".229" rx="5.065" ry="5.324"/>
        </g>
        <path stroke="#D0D4DF" stroke-linecap="round" stroke-width="3" d="M182.727 58.41l8.44.417a2 2 0 0 1 1.722 1.17l3.457 7.6"/>
        <path stroke="#C4C9D5" stroke-linecap="round" stroke-width="1.818" d="M5.455 197.273H16.97m10.17 0h127.926m13.399 0H190.909"/>
      </g>
    </g>
  </g>
</svg>
