<?xml version="1.0" encoding="UTF-8"?>
<svg width="140px" height="140px" viewBox="0 0 140 140" version="1.1" xmlns="http://www.w3.org/2000/svg" xmlns:xlink="http://www.w3.org/1999/xlink">
    <!-- Generator: Sketch 51.2 (57519) - http://www.bohemiancoding.com/sketch -->
    <title>user-avatar</title>
    <desc>Created with Sketch.</desc>
    <defs>
        <circle id="path-1" cx="70" cy="70" r="70"></circle>
    </defs>
    <g id="个人中心" stroke="none" stroke-width="1" fill="none" fill-rule="evenodd">
        <g id="个人中心---登录" transform="translate(-60.000000, -208.000000)">
            <g id="user-avatar" transform="translate(60.000000, 208.000000)">
                <mask id="mask-2" fill="white">
                    <use xlink:href="#path-1"></use>
                </mask>
                <use id="Mask-Copy" fill="#FFFFFF" xlink:href="#path-1"></use>
                <path d="M23,131.177801 C23,135.474153 26.4828815,138.957035 30.7792335,138.957035 C35.0755856,138.957035 38.5584671,135.474153 38.5584671,131.177801 C39.097026,113.924991 53.2387856,100.217788 70.5,100.217788 C87.7612144,100.217788 101.902974,113.924991 102.441533,131.177801 C102.441533,135.474153 105.924414,138.957035 110.220766,138.957035 C114.517119,138.957035 118,135.474153 118,131.177801 C117.972304,113.758668 108.42151,97.7491494 93.1064527,89.4499926 C104.722086,77.1155949 104.334796,57.7549961 92.2351785,45.8949983 C80.1355606,34.0350006 60.7710886,34.0350006 48.6714707,45.8949983 C36.5718528,57.7549961 36.1845633,77.1155949 47.8001965,89.4499926 C32.521219,97.7738423 23.0090929,113.778561 23,131.177801 Z M54.8326236,68.0104249 C54.8326236,59.4177208 61.7983866,52.4519578 70.3910907,52.4519578 C78.9837948,52.4519578 85.9495578,59.4177208 85.9495578,68.0104249 C85.9495578,76.603129 78.9837948,83.568892 70.3910907,83.568892 C61.7983866,83.568892 54.8326236,76.603129 54.8326236,68.0104249 Z" id="Shape" stroke="#FFFFFF" stroke-width="6" fill="#048DF5" fill-rule="nonzero" mask="url(#mask-2)"></path>
            </g>
        </g>
    </g>
</svg>